<svg width="85" height="85" viewBox="0 0 85 85" fill="none" xmlns="http://www.w3.org/2000/svg">
<g id="ant-design:google-circle-filled" clip-path="url(#clip0_1_137)">
<path id="Vector" d="M42.5 0C19.0301 0 0 19.0301 0 42.5C0 65.9699 19.0301 85 42.5 85C65.9699 85 85 65.9699 85 42.5C85 19.0301 65.9699 0 42.5 0ZM58.3426 60.1071C54.4911 63.6551 49.2355 65.7422 42.9648 65.7422C33.8862 65.7422 26.0313 60.534 22.2081 52.9448C20.6334 49.8047 19.7321 46.2567 19.7321 42.5C19.7321 38.7433 20.6334 35.1953 22.2081 32.0552C26.0313 24.4565 33.8862 19.2483 42.9648 19.2483C49.226 19.2483 54.4816 21.5536 58.5134 25.3008L51.8538 31.9699C49.4442 29.6646 46.38 28.4978 42.9743 28.4978C36.9219 28.4978 31.7991 32.5865 29.9682 38.0792C29.5033 39.4738 29.2377 40.9632 29.2377 42.5C29.2377 44.0368 29.5033 45.5262 29.9682 46.9208C31.7991 52.4135 36.9219 56.5022 42.9648 56.5022C46.0954 56.5022 48.7517 55.6769 50.8292 54.2824C53.2958 52.6317 54.9275 50.1747 55.4682 47.2623H42.9648V38.269H64.8504C65.1256 39.7963 65.2679 41.3806 65.2679 43.0218C65.2679 50.1083 62.7349 56.0564 58.3426 60.1071Z" fill="black"/>
</g>
<defs>
<clipPath id="clip0_1_137">
<rect width="85" height="85" fill="white"/>
</clipPath>
</defs>
</svg>
